<svg width="23" height="23" viewBox="0 0 23 23" fill="none" xmlns="http://www.w3.org/2000/svg">
<path fill-rule="evenodd" clip-rule="evenodd" d="M10.9727 22C6.89092 22 4.34666 19.1353 4.30859 19.097C4.96671 18.7091 7.67977 18.1825 8.31406 17.7804C9.01504 17.3352 9.2678 15.5971 9.2678 14.9125C9.2678 14.2278 7.64188 11.026 7.49283 11.8233C7.35534 12.5594 6.55456 9.78001 6.55456 9.17197C6.55456 8.56393 7.03143 8.69327 7.03143 8.69327C7.03143 8.69327 6.65951 7.95589 6.65951 6.78292C6.65951 4.1065 8.68598 2 11.4661 2C14.246 2 15.791 4.31245 15.791 6.78292C15.791 7.95589 15.6146 8.69327 15.6146 8.69327C15.6146 8.69327 16.0914 8.56393 16.0914 9.17197C16.0914 9.78001 15.5792 12.1732 15.3028 11.8218C14.5779 10.9017 13.378 14.2506 13.378 14.9125C13.378 15.5743 13.6308 17.335 14.3318 17.7804C14.9564 18.1779 17.6076 19.0713 18.3086 19.4592C18.3084 19.5021 15.0497 22 10.9727 22Z" fill="white"/>
<path fill-rule="evenodd" clip-rule="evenodd" d="M19.2041 3.2959C17.168 1.25977 14.3555 0 11.25 0C8.14453 0 5.33203 1.25977 3.2959 3.2959C1.25977 5.33203 0 8.14453 0 11.25C0 14.3555 1.25977 17.168 3.2959 19.2041C5.33203 21.2402 8.14453 22.5 11.25 22.5C14.3555 22.5 17.168 21.2402 19.2041 19.2041C21.2402 17.168 22.5 14.3555 22.5 11.25C22.5 8.14453 21.2402 5.33203 19.2041 3.2959ZM11.25 0.9375C14.1064 0.9375 16.6846 2.09473 18.5449 3.95508C20.4053 5.83008 21.5625 8.4082 21.5625 11.25C21.5625 14.1064 20.4053 16.6846 18.5449 18.5449C16.6699 20.4053 14.0918 21.5625 11.25 21.5625C8.39355 21.5625 5.81543 20.4053 3.95508 18.5449C2.09473 16.6699 0.9375 14.0918 0.9375 11.25C0.9375 8.39355 2.09473 5.81543 3.95508 3.95508C5.83008 2.09473 8.4082 0.9375 11.25 0.9375Z" fill="#FFFFFE"/>
</svg>
