<svg xmlns="http://www.w3.org/2000/svg" xmlns:xlink="http://www.w3.org/1999/xlink" width="22.5" height="22.5" viewBox="0 0 22.5 22.5"><defs><style>.a{fill:url(#a);}</style><linearGradient id="a" x1="0.5" x2="0.5" y2="0.979" gradientUnits="objectBoundingBox"><stop offset="0" stop-color="#0fff25"/><stop offset="1" stop-color="#56e4ff"/></linearGradient></defs><path class="a" d="M2403.3,1592.2a11.246,11.246,0,1,1,7.954,3.3A11.179,11.179,0,0,1,2403.3,1592.2Zm10.082-4.292c0,.661.253,2.423.954,2.867.518.33,2.427,1,3.465,1.441q.387-.318.749-.676a10.313,10.313,0,1,0-14.59,0q.246.246.507.474c.85-.378,3.259-.863,3.852-1.239.7-.445.953-2.182.953-2.867s-1.625-3.886-1.775-3.09c-.138.736-.938-2.043-.938-2.651s.477-.479.477-.479a4.584,4.584,0,0,1-.373-1.911,4.7,4.7,0,0,1,4.807-4.783c2.78,0,4.324,2.312,4.324,4.783a9.051,9.051,0,0,1-.176,1.911s.477-.13.477.479-.512,3-.789,2.65a.353.353,0,0,0-.277-.159C2414.309,1584.663,2413.378,1587.329,2413.378,1587.912Z" transform="translate(-2400 -1573)"/></svg>