<svg xmlns="http://www.w3.org/2000/svg" xmlns:xlink="http://www.w3.org/1999/xlink" width="26.048" height="26.231" viewBox="0 0 26.048 26.231"><defs><style>.a{stroke:rgba(0,0,0,0);fill:url(#a);}</style><linearGradient id="a" x1="0.5" x2="0.5" y2="0.979" gradientUnits="objectBoundingBox"><stop offset="0" stop-color="#0fff25"/><stop offset="1" stop-color="#56e4ff"/></linearGradient></defs><path class="a" d="M34.311,573.346c.015-.037.032-.074.044-.113a.2.2,0,0,0,0-.056q.015-.884.031-1.769c.007-.372.015-.743.023-1.115s.015-.728.022-1.093.007-.729.024-1.093a2.057,2.057,0,0,1,1.107-1.8,17.612,17.612,0,0,1,2.425-1.115c.8-.3,1.617-.586,2.425-.879a11.847,11.847,0,0,0,1.529-.632c.076-.041.149-.087.224-.13a.538.538,0,0,0,.273-.441c.023-.213.044-.425.067-.638a.769.769,0,0,1,.343-.616.127.127,0,0,0,.059-.115,5.589,5.589,0,0,0,.011-.776c-.01-.082-.006-.165-.009-.248a.379.379,0,0,0-.111-.263c-.095-.1-.187-.2-.281-.293a1.833,1.833,0,0,1-.53-1.188.182.182,0,0,0-.065-.138c-.02-.017-.039-.036-.059-.052a3.371,3.371,0,0,1-1.14-1.981,3.328,3.328,0,0,1-.063-.512,2.219,2.219,0,0,1,.075-.646,2.741,2.741,0,0,0,.077-.635c0-.192,0-.383,0-.575a11.879,11.879,0,0,1,.5-3.271,4.384,4.384,0,0,1,.926-1.7,3.33,3.33,0,0,1,1.019-.825,1.342,1.342,0,0,1,.676-.136c.274.015.548.023.822.028a5.4,5.4,0,0,0,1.018-.1c.355-.061.706-.14,1.06-.2.117-.022.239-.021.358-.034.051-.006.1-.02.152-.03h.068a.508.508,0,0,0,.107.028,4.736,4.736,0,0,1,1.709.411,6.432,6.432,0,0,1,2.078,1.386,3.749,3.749,0,0,1,.766,1.052,2.135,2.135,0,0,1,.21.913c0,.382.016.766.045,1.147a10.392,10.392,0,0,0,.227,1.467c.016.073.024.148.043.221a2.589,2.589,0,0,0,.11.365,2.057,2.057,0,0,1,.142,1.047,4.448,4.448,0,0,1-.391,1.461c-.115.244-.252.478-.384.713a3.377,3.377,0,0,0-.386,1.075,1.615,1.615,0,0,1-.7,1.114c-.059.04-.116.084-.175.124a.241.241,0,0,0-.11.175,2.731,2.731,0,0,0-.03.728c.007.053.015.1.071.131a.655.655,0,0,1,.356.563c.027.216.043.433.07.649.014.111.04.221.062.331a.3.3,0,0,0,.133.187,4.248,4.248,0,0,0,.855.453c.683.273,1.37.538,2.058.8.892.339,1.786.672,2.65,1.079.346.163.688.337,1.027.516a2.027,2.027,0,0,1,1.07,1.379,2.878,2.878,0,0,1,.059.513c.02.379.031.758.045,1.137,0,.015,0,.03,0,.045.01.345.017.691.029,1.036.013.375.03.75.045,1.125q.022.534.044,1.069c.008.191.011.383.02.574a.706.706,0,0,0,.03.128v.068c-.053,0-.105,0-.158,0H34.434c-.041,0-.083,0-.124,0C34.311,573.361,34.311,573.354,34.311,573.346Zm24.214-.738c0-.076,0-.138,0-.2-.012-.236-.027-.472-.037-.708q-.025-.557-.046-1.114-.024-.613-.045-1.227c-.015-.42-.029-.84-.045-1.261a1.3,1.3,0,0,0-.68-1.122c-.119-.071-.244-.134-.368-.2a20.568,20.568,0,0,0-2.016-.9c-.942-.364-1.888-.719-2.831-1.081a8.24,8.24,0,0,1-1.285-.6,1.531,1.531,0,0,1-.444-.343,1.309,1.309,0,0,1-.252-.655c-.029-.219-.048-.44-.071-.66-.009-.085-.027-.152-.126-.186A.41.41,0,0,1,50,562.02c-.033-.188-.054-.379-.069-.569a3.375,3.375,0,0,1,.047-.7.946.946,0,0,1,.411-.671c.076-.055.151-.111.228-.165a.753.753,0,0,0,.3-.423c.033-.119.053-.242.08-.362a4.08,4.08,0,0,1,.478-1.2,4.8,4.8,0,0,0,.415-.824,4.092,4.092,0,0,0,.231-1.018,1.117,1.117,0,0,0-.053-.543,4.467,4.467,0,0,1-.226-.788,13.118,13.118,0,0,1-.264-1.791c-.023-.318-.031-.638-.027-.957a1.567,1.567,0,0,0-.235-.834,3.581,3.581,0,0,0-.625-.767,5.8,5.8,0,0,0-1.4-.976,4.679,4.679,0,0,0-1.749-.515,1.682,1.682,0,0,0-.349,0c-.2.026-.4.069-.6.1-.369.062-.738.128-1.109.184a6.174,6.174,0,0,1-.626.062,6.988,6.988,0,0,1-.956-.035.568.568,0,0,0-.242.035,1.207,1.207,0,0,0-.288.151,3.542,3.542,0,0,0-1.314,1.826,10.805,10.805,0,0,0-.415,1.854,11.862,11.862,0,0,0-.1,1.346c0,.173,0,.346,0,.519a3.832,3.832,0,0,1-.1.893,1.734,1.734,0,0,0-.047.457,2.551,2.551,0,0,0,.236.945,2.484,2.484,0,0,0,.685.938,2.081,2.081,0,0,1,.213.2.66.66,0,0,1,.185.447,1.623,1.623,0,0,0,.036.267,1.107,1.107,0,0,0,.306.542c.111.117.225.233.331.354a.883.883,0,0,1,.233.491,4.452,4.452,0,0,1,.035.482q0,.439-.022.878a.63.63,0,0,1-.32.572.156.156,0,0,0-.084.136c-.02.217-.041.433-.067.649a1.236,1.236,0,0,1-.565.931c-.05.033-.1.064-.154.095a7.436,7.436,0,0,1-1.2.546c-.815.3-1.632.587-2.447.883a19.681,19.681,0,0,0-2.891,1.283,1.3,1.3,0,0,0-.669.851,2.347,2.347,0,0,0-.053.491c-.014.507-.02,1.014-.03,1.521,0,.244-.012.488-.017.732q-.016.834-.031,1.668c0,.094-.008.188-.009.281a.8.8,0,0,0,.014.107Z" transform="translate(-33.762 -547.66)"/></svg>