<svg width="27" height="27" viewBox="0 0 27 27" fill="none" xmlns="http://www.w3.org/2000/svg">
<path fill-rule="evenodd" clip-rule="evenodd" d="M17.9618 16.6981C19.0418 17.5126 22.2465 18.2739 24.8137 19.6726C25.4104 19.9648 25.7932 20.5664 25.8052 21.2307C25.8052 21.6379 26 26.2767 26 26.2767H1C1 26.2767 1.10623 21.6379 1.10623 21.2307C1.11824 20.5664 1.50109 19.9648 2.09773 19.6726C4.64731 18.2385 7.94051 17.5657 9.02054 16.7512C9.44547 16.4148 9.33924 15.9014 9.42776 15.3879C9.51629 14.8745 9.83499 15.2286 9.83499 14.6797C9.8687 14.2909 9.8687 13.8999 9.83499 13.5111C9.83499 12.8914 8.91431 12.8206 8.8789 11.6344C8.8789 11.3865 8.43626 11.2271 8.18839 10.8376C7.80091 10.3231 7.56758 9.70909 7.51558 9.06709C7.51558 8.30575 7.67493 8.50051 7.67493 7.54442C7.64451 6.27385 7.81786 5.00661 8.18839 3.79088C8.4451 2.8899 9.00083 2.10313 9.76416 1.56C10.7025 0.975726 10.3307 1.75476 13.4646 1.06425C15.5007 0.603913 18.67 2.71085 18.7762 4.39287C18.7549 5.4173 18.8619 6.44037 19.0949 7.43819C19.1834 8.111 19.3782 7.95165 19.3782 8.71298C19.3285 9.45399 19.0974 10.1714 18.7054 10.8022C18.4648 11.183 18.2911 11.6022 18.1919 12.0416C18.0326 13.3164 17.1827 13.0154 17.1473 13.7059C17.0827 14.0452 17.0827 14.3936 17.1473 14.7328C17.1473 15.14 17.466 14.7328 17.5545 15.2109C17.6431 15.6889 17.5722 16.4679 17.9618 16.6981Z" stroke="white"/>
</svg>
