<svg width="25" height="24" viewBox="0 0 25 24" fill="none" xmlns="http://www.w3.org/2000/svg">
<path fill-rule="evenodd" clip-rule="evenodd" d="M8.04178 0.925926C4.11752 0.925926 0.925926 4.0445 0.925926 7.87897V10.3687C0.925926 13.7731 3.41964 16.6527 6.85475 17.2172L7.29435 17.2898V21.2963L14.2684 17.3217H16.9582C20.883 17.3217 24.0741 14.2026 24.0741 10.3687V7.87897C24.0741 4.0445 20.883 0.925926 16.9582 0.925926H8.04178ZM6.30374 18.2167C2.62491 17.4056 0 14.2069 0 10.452V7.96723C0 3.57395 3.6277 0 8.08707 0H16.9129C21.3723 0 25 3.57395 25 7.96723V10.452C25 14.8453 21.3723 18.4192 16.9129 18.4192H14.5327L6.30374 23.1481V18.2167Z" fill="white"/>
</svg>
