<svg xmlns="http://www.w3.org/2000/svg" xmlns:xlink="http://www.w3.org/1999/xlink" width="26" height="24.511" viewBox="0 0 26 24.511"><defs><style>.a{fill:none;}.a,.b{stroke:rgba(0,0,0,0);}.b{fill:url(#a);}</style><linearGradient id="a" x1="0.5" x2="0.5" y2="0.979" gradientUnits="objectBoundingBox"><stop offset="0" stop-color="#0fff25"/><stop offset="1" stop-color="#56e4ff"/></linearGradient></defs><g transform="translate(2379.5 1169.5)"><path class="a" d="M6.3,23.148V18.217a8.113,8.113,0,0,1-4.531-2.779A7.919,7.919,0,0,1,0,10.452V7.967A8.037,8.037,0,0,1,8.087,0h8.825A8.037,8.037,0,0,1,25,7.967v2.485a8.037,8.037,0,0,1-8.087,7.968h-2.38L6.305,23.147ZM8.042.926A7.043,7.043,0,0,0,.926,7.879v2.49a6.973,6.973,0,0,0,5.928,6.848l.44.073V21.3l6.974-3.975h2.689a7.044,7.044,0,0,0,7.116-6.952V7.879A7.044,7.044,0,0,0,16.958.926Z" transform="translate(-2379 -1169)"/><path class="b" d="M6.3,23.148V18.217a8.113,8.113,0,0,1-4.531-2.779A7.919,7.919,0,0,1,0,10.452V7.967A8.037,8.037,0,0,1,8.087,0h8.825A8.037,8.037,0,0,1,25,7.967v2.485a8.037,8.037,0,0,1-8.087,7.968h-2.38L6.305,23.147ZM8.042.926A7.043,7.043,0,0,0,.926,7.879v2.49a6.973,6.973,0,0,0,5.928,6.848l.44.073V21.3l6.974-3.975h2.689a7.044,7.044,0,0,0,7.116-6.952V7.879A7.044,7.044,0,0,0,16.958.926Z" transform="translate(-2379 -1169)"/></g></svg>