<svg xmlns="http://www.w3.org/2000/svg" width="25.034" height="25.034" viewBox="0 0 25.034 25.034">
  <g id="Calendar" transform="translate(-2 -2)">
    <path id="Path_5013" data-name="Path 5013" d="M24.948,4.5H22.862V3.669a1.669,1.669,0,0,0-3.338,0V4.5H16.186V3.669a1.669,1.669,0,0,0-3.338,0V4.5H9.51V3.669a1.669,1.669,0,0,0-3.338,0V4.5H4.086A2.086,2.086,0,0,0,2,6.59V23.279a2.086,2.086,0,0,0,2.086,2.086H15.769a.417.417,0,1,0,0-.834H4.086a1.255,1.255,0,0,1-1.252-1.252V10.345H26.2v7.093a.417.417,0,0,0,.834,0V6.59A2.086,2.086,0,0,0,24.948,4.5Zm-4.59-.834a.834.834,0,1,1,1.669,0v2.5a.834.834,0,1,1-1.669,0Zm-6.676,0a.834.834,0,0,1,1.669,0v2.5a.834.834,0,1,1-1.669,0Zm-6.676,0a.834.834,0,0,1,1.669,0v2.5a.834.834,0,1,1-1.669,0ZM26.2,9.51H2.834V6.59A1.255,1.255,0,0,1,4.086,5.338H6.172v.834a1.669,1.669,0,0,0,3.338,0V5.338h3.338v.834a1.669,1.669,0,0,0,3.338,0V5.338h3.338v.834a1.669,1.669,0,0,0,3.338,0V5.338h2.086A1.255,1.255,0,0,1,26.2,6.59Z" transform="translate(0)" fill="#fff"/>
    <path id="Path_5014" data-name="Path 5014" d="M25.338,27.834A.834.834,0,0,0,24.5,27H22.834a.834.834,0,0,0-.834.834v1.252a.834.834,0,0,0,.834.834H24.5a.834.834,0,0,0,.834-.834Zm-2.5,1.252V27.834H24.5v1.252Z" transform="translate(-11.655 -14.569)" fill="#fff"/>
    <path id="Path_5015" data-name="Path 5015" d="M13.338,27.834A.834.834,0,0,0,12.5,27H10.834a.834.834,0,0,0-.834.834v1.252a.834.834,0,0,0,.834.834H12.5a.834.834,0,0,0,.834-.834Zm-2.5,1.252V27.834H12.5v1.252Z" transform="translate(-4.662 -14.569)" fill="#fff"/>
    <path id="Path_5016" data-name="Path 5016" d="M48.5,29.921a.834.834,0,0,0,.834-.834V27.834A.834.834,0,0,0,48.5,27H46.834a.834.834,0,0,0-.834.834v1.252a.834.834,0,0,0,.834.834Zm-1.669-2.086H48.5v1.252H46.834Z" transform="translate(-25.642 -14.569)" fill="#fff"/>
    <path id="Path_5017" data-name="Path 5017" d="M25.338,36.834A.834.834,0,0,0,24.5,36H22.834a.834.834,0,0,0-.834.834v1.252a.834.834,0,0,0,.834.834H24.5a.834.834,0,0,0,.834-.834Zm-2.5,1.252V36.834H24.5v1.252Z" transform="translate(-11.655 -19.814)" fill="#fff"/>
    <path id="Path_5018" data-name="Path 5018" d="M13.338,36.834A.834.834,0,0,0,12.5,36H10.834a.834.834,0,0,0-.834.834v1.252a.834.834,0,0,0,.834.834H12.5a.834.834,0,0,0,.834-.834Zm-2.5,1.252V36.834H12.5v1.252Z" transform="translate(-4.662 -19.814)" fill="#fff"/>
    <path id="Path_5019" data-name="Path 5019" d="M24.5,45H22.834a.834.834,0,0,0-.834.834v1.252a.834.834,0,0,0,.834.834H24.5a.834.834,0,0,0,.834-.834V45.834A.834.834,0,0,0,24.5,45Zm-1.669,2.086V45.834H24.5v1.252Z" transform="translate(-11.655 -25.059)" fill="#fff"/>
    <path id="Path_5020" data-name="Path 5020" d="M34.834,29.921H36.5a.834.834,0,0,0,.834-.834V27.834A.834.834,0,0,0,36.5,27H34.834a.834.834,0,0,0-.834.834v1.252A.834.834,0,0,0,34.834,29.921Zm0-2.086H36.5v1.252H34.834Z" transform="translate(-18.648 -14.569)" fill="#fff"/>
    <path id="Path_5021" data-name="Path 5021" d="M34,38.086a.834.834,0,0,0,.834.834.417.417,0,0,0,0-.834V36.834H36.5a.417.417,0,0,0,0-.834H34.834a.834.834,0,0,0-.834.834Z" transform="translate(-18.648 -19.814)" fill="#fff"/>
    <path id="Path_5022" data-name="Path 5022" d="M12.5,45H10.834a.834.834,0,0,0-.834.834v1.252a.834.834,0,0,0,.834.834H12.5a.834.834,0,0,0,.834-.834V45.834A.834.834,0,0,0,12.5,45Zm-1.669,2.086V45.834H12.5v1.252Z" transform="translate(-4.662 -25.059)" fill="#fff"/>
    <path id="Path_5023" data-name="Path 5023" d="M41.424,36a5.424,5.424,0,1,0,5.424,5.424A5.424,5.424,0,0,0,41.424,36Zm0,10.014a4.59,4.59,0,1,1,4.59-4.59A4.59,4.59,0,0,1,41.424,46.014Z" transform="translate(-19.814 -19.814)" fill="#fff"/>
    <path id="Path_5024" data-name="Path 5024" d="M47.19,44.637l-3.245,3.245L42.47,46.407a.417.417,0,1,0-.59.59l1.77,1.77a.417.417,0,0,0,.59,0l3.54-3.54a.417.417,0,1,0-.59-.59Z" transform="translate(-23.17 -24.776)" fill="#fff"/>
  </g>
</svg>
