<svg xmlns="http://www.w3.org/2000/svg" xmlns:xlink="http://www.w3.org/1999/xlink" width="25.034" height="25.033" viewBox="0 0 25.034 25.033">
  <defs>
    <linearGradient id="linear-gradient" x1="0.5" x2="0.5" y2="0.979" gradientUnits="objectBoundingBox">
      <stop offset="0" stop-color="#0fff25"/>
      <stop offset="1" stop-color="#56e4ff"/>
    </linearGradient>
  </defs>
  <path id="Union_69" data-name="Union 69" d="M14.186,19.609a5.424,5.424,0,1,1,5.424,5.424A5.424,5.424,0,0,1,14.186,19.609Zm.834,0a4.59,4.59,0,1,0,4.59-4.589A4.59,4.59,0,0,0,15.02,19.609ZM2.086,23.365A2.086,2.086,0,0,1,0,21.279V4.59A2.086,2.086,0,0,1,2.086,2.5H4.172V1.669a1.669,1.669,0,0,1,3.338,0V2.5h3.337V1.669a1.669,1.669,0,0,1,3.338,0V2.5h3.338V1.669a1.669,1.669,0,0,1,3.338,0V2.5h2.086A2.086,2.086,0,0,1,25.034,4.59V15.438a.417.417,0,1,1-.834,0V8.345H.834V21.279a1.255,1.255,0,0,0,1.252,1.252H13.769a.417.417,0,0,1,0,.834ZM.834,4.59V7.51H24.2V4.59a1.256,1.256,0,0,0-1.252-1.252H20.862v.834a1.669,1.669,0,0,1-3.338,0V3.338H14.186v.834a1.669,1.669,0,0,1-3.338,0V3.338H7.51v.834a1.669,1.669,0,0,1-3.338,0V3.338H2.086A1.255,1.255,0,0,0,.834,4.59ZM18.358,1.669v2.5a.835.835,0,0,0,1.67,0v-2.5a.835.835,0,0,0-1.67,0Zm-6.675,0v2.5a.834.834,0,0,0,1.669,0v-2.5a.834.834,0,0,0-1.669,0Zm-6.676,0v2.5a.835.835,0,0,0,1.67,0v-2.5a.835.835,0,0,0-1.67,0ZM18.481,21.992l-1.769-1.77a.417.417,0,0,1,.59-.59l1.475,1.475,3.245-3.245a.417.417,0,1,1,.59.59l-3.54,3.541a.418.418,0,0,1-.59,0Zm-9.3-1.129a.834.834,0,0,1-.834-.834V18.776a.834.834,0,0,1,.834-.834h1.669a.834.834,0,0,1,.835.834v1.252a.834.834,0,0,1-.835.834Zm0-.834h1.669V18.776H9.179Zm-5.007.834a.834.834,0,0,1-.834-.834V18.776a.834.834,0,0,1,.834-.834H5.841a.835.835,0,0,1,.835.834v1.252a.835.835,0,0,1-.835.834Zm0-.834H5.841V18.776H4.172Zm9.179-3.756V15.02a.834.834,0,0,1,.834-.834h1.669a.417.417,0,0,1,0,.834H14.186v1.252a.417.417,0,1,1,0,.834A.834.834,0,0,1,13.352,16.272Zm-4.172.834a.834.834,0,0,1-.834-.834V15.02a.834.834,0,0,1,.834-.834h1.669a.834.834,0,0,1,.835.834v1.252a.834.834,0,0,1-.835.834Zm0-.834h1.669V15.02H9.179Zm-5.007.834a.834.834,0,0,1-.834-.834V15.02a.834.834,0,0,1,.834-.834H5.841a.835.835,0,0,1,.835.834v1.252a.835.835,0,0,1-.835.834Zm0-.834H5.841V15.02H4.172Zm15.02-2.921a.834.834,0,0,1-.834-.834V11.265a.834.834,0,0,1,.834-.834h1.67a.834.834,0,0,1,.834.834v1.252a.834.834,0,0,1-.834.834Zm0-.834h1.67V11.265h-1.67Zm-5.007.834a.834.834,0,0,1-.834-.834V11.265a.834.834,0,0,1,.834-.834h1.669a.834.834,0,0,1,.834.834v1.252a.834.834,0,0,1-.834.834Zm0-.834h1.669V11.265H14.186Zm-5.007.834a.834.834,0,0,1-.834-.834V11.265a.834.834,0,0,1,.834-.834h1.669a.834.834,0,0,1,.835.834v1.252a.834.834,0,0,1-.835.834Zm0-.834h1.669V11.265H9.179Zm-5.007.834a.834.834,0,0,1-.834-.834V11.265a.834.834,0,0,1,.834-.834H5.841a.835.835,0,0,1,.835.834v1.252a.835.835,0,0,1-.835.834Zm0-.834H5.841V11.265H4.172Z" fill="url(#linear-gradient)"/>
</svg>
