<svg xmlns="http://www.w3.org/2000/svg" width="11.993" height="11.996" viewBox="0 0 11.993 11.996">
  <g id="cross" transform="translate(0 0.002)" opacity="0.6" style="isolation: isolate">
    <path id="Path_4981" data-name="Path 4981" d="M.527.091A.316.316,0,0,0,.094.085a.294.294,0,0,0-.006.42l11.38,11.4a.316.316,0,0,0,.434.006.294.294,0,0,0,.006-.423L.527.091" transform="translate(-0.001 -0.001)" fill="#1a456b"/>
    <path id="Path_4982" data-name="Path 4982" d="M11.906.5A.294.294,0,0,0,11.9.081a.316.316,0,0,0-.434.006L.087,11.487a.294.294,0,0,0,.006.423A.316.316,0,0,0,.526,11.9L11.906.5" transform="translate(0 0)" fill="#1a456b"/>
  </g>
</svg>
