<svg xmlns="http://www.w3.org/2000/svg" width="24.276" height="24.276" viewBox="0 0 24.276 24.276"><defs><style>.a{fill:#fff;}</style></defs><path class="a" d="M38.253,17.618H35.826v-.4a1.214,1.214,0,1,0-2.428,0v.4H29.352v-.4a1.214,1.214,0,1,0-2.428,0v.4H22.878v-.4a1.214,1.214,0,1,0-2.428,0v.4H18.023A2.025,2.025,0,0,0,16,19.641V38.253a2.025,2.025,0,0,0,2.023,2.023h20.23a2.025,2.025,0,0,0,2.023-2.023V19.641A2.025,2.025,0,0,0,38.253,17.618Zm-4.046-.4a.4.4,0,1,1,.809,0v2.428a.4.4,0,1,1-.809,0Zm-6.474,0a.4.4,0,1,1,.809,0v2.428a.4.4,0,1,1-.809,0Zm-6.474,0a.4.4,0,1,1,.809,0v2.428a.4.4,0,1,1-.809,0Zm-3.237,1.214h2.428v1.214a1.214,1.214,0,0,0,2.428,0V18.428h4.046v1.214a1.214,1.214,0,1,0,2.428,0V18.428H33.4v1.214a1.214,1.214,0,0,0,2.428,0V18.428h2.428a1.215,1.215,0,0,1,1.214,1.214v2.832H16.809V19.641A1.215,1.215,0,0,1,18.023,18.428Zm20.23,21.04H18.023a1.215,1.215,0,0,1-1.214-1.214V23.283H39.467v14.97a1.215,1.215,0,0,1-1.214,1.214Z" transform="translate(-16 -16)"/><path class="a" d="M241.286,203.313l-2.706-.414-1.216-2.589a.541.541,0,0,0-.98,0L235.17,202.9l-2.706.414a.541.541,0,0,0-.306.913l1.974,2.023-.467,2.864a.541.541,0,0,0,.8.56l2.414-1.334,2.414,1.334a.541.541,0,0,0,.8-.561l-.467-2.864,1.974-2.023a.541.541,0,0,0-.306-.913Zm-2.634,2.376a.541.541,0,0,0-.147.465l.332,2.033-1.7-.94a.541.541,0,0,0-.524,0l-1.7.94.332-2.033a.541.541,0,0,0-.147-.465l-1.429-1.465,1.951-.3a.541.541,0,0,0,.408-.305l.848-1.807.848,1.807a.541.541,0,0,0,.408.305l1.951.3Z" transform="translate(-224.309 -189.923)"/></svg>