<svg xmlns="http://www.w3.org/2000/svg" xmlns:xlink="http://www.w3.org/1999/xlink" width="24.575" height="24.575" viewBox="0 0 24.575 24.575"><defs><style>.a{fill:url(#a);}</style><linearGradient id="a" x1="0.5" x2="0.5" y2="0.979" gradientUnits="objectBoundingBox"><stop offset="0" stop-color="#0fff25"/><stop offset="1" stop-color="#56e4ff"/></linearGradient></defs><g transform="translate(0 0)"><path class="a" d="M12.288,24.575A12.288,12.288,0,1,1,24.575,12.288,12.3,12.3,0,0,1,12.288,24.575Zm0-23.551A11.264,11.264,0,1,0,23.551,12.288,11.277,11.277,0,0,0,12.288,1.024Z" transform="translate(0 0)"/></g><g transform="translate(10.752 16.383)"><path class="a" d="M12.036,19.072a1.536,1.536,0,1,1,1.536-1.536A1.538,1.538,0,0,1,12.036,19.072Zm0-2.048a.512.512,0,1,0,.512.512A.513.513,0,0,0,12.036,17.024Z" transform="translate(-10.5 -16)"/></g><g transform="translate(8.192 4.096)"><path class="a" d="M12.1,14.752a.512.512,0,0,1-.512-.512V12.98a2.04,2.04,0,0,1,1.434-1.954A3.072,3.072,0,1,0,9.024,8.1.512.512,0,1,1,8,8.1,4.1,4.1,0,1,1,13.325,12a1.02,1.02,0,0,0-.717.977V14.24A.512.512,0,0,1,12.1,14.752Z" transform="translate(-8 -4)"/></g></svg>