<svg xmlns="http://www.w3.org/2000/svg" xmlns:xlink="http://www.w3.org/1999/xlink" width="25" height="25.004" viewBox="0 0 25 25.004"><defs><style>.a{fill:url(#a);}</style><linearGradient id="a" x1="0.5" x2="0.5" y2="0.979" gradientUnits="objectBoundingBox"><stop offset="0" stop-color="#0fff25"/><stop offset="1" stop-color="#56e4ff"/></linearGradient></defs><path class="a" d="M246.595,733c.244.183.486.371.734.549q5.678,4.053,11.355,8.1c.041.029.081.059.121.089a.367.367,0,0,1,.133.439.33.33,0,0,1-.351.227c-.651,0-1.3.009-1.954,0-.209,0-.263.064-.262.269q.009,6.356,0,12.711a2.53,2.53,0,0,1-2.125,2.576,3.185,3.185,0,0,1-.577.038q-1.771.005-3.543,0c-.445,0-.555-.112-.555-.558q0-3.145,0-6.292a1.755,1.755,0,0,0-1.81-1.8q-1.278,0-2.555,0a1.754,1.754,0,0,0-1.772,1.363,2.563,2.563,0,0,0-.064.635q-.006,3.049,0,6.1c0,.466-.085.554-.548.553-1.3,0-2.606.008-3.908-.018a2.509,2.509,0,0,1-2.271-2.009,4.379,4.379,0,0,1-.047-.7q0-6.271,0-12.54c0-.32,0-.32-.316-.321-.572,0-1.146-.009-1.718,0a.555.555,0,0,1-.595-.307v-.129a2.333,2.333,0,0,1,.305-.318q4.938-3.532,9.882-7.057c.744-.531,1.485-1.068,2.226-1.6Zm-11.034,8.637c.045.032.056.047.067.047l.794.006h.365c.415,0,.52.1.52.517q0,6.518,0,13.036a2.608,2.608,0,0,0,.07.657,1.837,1.837,0,0,0,1.818,1.382q1.589,0,3.178,0c.277,0,.278,0,.278-.286q0-2.9,0-5.8a2.933,2.933,0,0,1,.065-.658,2.518,2.518,0,0,1,2.473-1.931c.852-.008,1.7-.023,2.555.009a2.841,2.841,0,0,1,1.077.23,2.477,2.477,0,0,1,1.487,2.406q.006,2.9,0,5.8c0,.173.04.235.224.233,1.088-.008,2.176,0,3.264-.005a1.749,1.749,0,0,0,1.1-.36,1.914,1.914,0,0,0,.74-1.629q-.014-6.486,0-12.971a2.1,2.1,0,0,1,0-.215c.031-.3.152-.415.458-.417.365,0,.73,0,1.1,0,.058,0,.115-.012.228-.025-.131-.1-.214-.167-.3-.229q-5.213-3.726-10.423-7.455a.315.315,0,0,0-.441,0q-4.963,3.559-9.933,7.105Z" transform="translate(-233.965 -732.997)"/></svg>