<svg xmlns="http://www.w3.org/2000/svg" xmlns:xlink="http://www.w3.org/1999/xlink" width="29" height="20.6" viewBox="0 0 29 20.6"><defs><style>.a{fill:none;stroke:rgba(0,0,0,0);}.b{fill:url(#a);}</style><linearGradient id="a" x1="0.5" x2="0.5" y2="0.979" gradientUnits="objectBoundingBox"><stop offset="0" stop-color="#0fff25"/><stop offset="1" stop-color="#56e4ff"/></linearGradient></defs><g transform="translate(2382.5 1324.5)"><path class="a" d="M3.5,19.6A3.5,3.5,0,0,1,0,16.1V3.5A3.5,3.5,0,0,1,3.5,0H16.1a3.5,3.5,0,0,1,3.5,3.5V5.167l7.386-3.693A.7.7,0,0,1,28,2.1V17.5a.7.7,0,0,1-1.013.626L19.6,14.432V16.1a3.5,3.5,0,0,1-3.5,3.5Z" transform="translate(-2382 -1324)"/><path class="b" d="M16.1,19.6H3.5A3.51,3.51,0,0,1,0,16.1V3.5A3.51,3.51,0,0,1,3.5,0H16.1a3.51,3.51,0,0,1,3.5,3.5V5.167l7.387-3.693A.7.7,0,0,1,28,2.1V17.5a.7.7,0,0,1-1.013.625L19.6,14.432V16.1A3.509,3.509,0,0,1,16.1,19.6ZM3.5,1.4A2.1,2.1,0,0,0,1.4,3.5V16.1a2.1,2.1,0,0,0,2.1,2.1H16.1a2.106,2.106,0,0,0,2.1-2.1V3.5a2.106,2.106,0,0,0-2.1-2.1ZM26.6,3.233h0l-7,3.5v6.134l7,3.5V3.233Z" transform="translate(-2382 -1324)"/></g></svg>