<svg width="28" height="20" viewBox="0 0 28 20" fill="none" xmlns="http://www.w3.org/2000/svg">
<path fill-rule="evenodd" clip-rule="evenodd" d="M27.6678 1.50458C27.4617 1.37643 27.2037 1.36478 26.9869 1.47385L19.6 5.16726V3.5C19.5977 1.56795 18.0321 0.0022758 16.1 0H3.5C1.56795 0.0022758 0.0022758 1.56795 0 3.5V16.1C0.0022758 18.0321 1.56795 19.5977 3.5 19.6H16.1C18.0321 19.5977 19.5977 18.0321 19.6 16.1V14.4327L26.9869 18.1262C27.2039 18.2347 27.4616 18.2231 27.668 18.0955C27.8744 17.968 28 17.7426 28 17.5V2.1C27.9999 1.85736 27.8742 1.63206 27.6678 1.50458ZM18.2 16.1C18.1987 17.2593 17.2593 18.1987 16.1 18.2H3.5C2.34073 18.1987 1.40127 17.2593 1.4 16.1V3.5C1.40127 2.34073 2.34073 1.40127 3.5 1.4H16.1C17.2593 1.40127 18.1987 2.34073 18.2 3.5V16.1ZM19.6 12.8673L26.6 16.3673V3.23274L19.6 6.73274V12.8673Z" fill="white"/>
</svg>
