<svg width="18" height="21" viewBox="0 0 18 21" fill="none" xmlns="http://www.w3.org/2000/svg">
<path fill-rule="evenodd" clip-rule="evenodd" d="M9.35084 0.362064V11.9423C9.35084 12.1365 9.19366 12.2937 9 12.2935C8.80618 12.2935 8.64916 12.1363 8.64916 11.9422V0.362064C8.64916 0.167921 8.80634 0.0107422 9 0.0107422C9.19382 0.0107422 9.35084 0.167921 9.35084 0.362064ZM1.25212 16.0836C2.90764 18.9538 5.92151 20.5605 9.01639 20.5605C10.5326 20.5605 12.0682 20.1749 13.4728 19.3635C17.7429 16.8933 19.2121 11.4031 16.7479 7.12492C15.7651 5.4183 14.2852 4.11185 12.4685 3.34749C12.2895 3.27244 12.0844 3.35681 12.0094 3.53521C11.9343 3.7144 12.0182 3.92012 12.1969 3.99533C13.8709 4.69958 15.2346 5.90349 16.1402 7.47624C18.4111 11.419 17.0571 16.4785 13.1222 18.7549C9.18546 21.0291 4.13276 19.6733 1.85978 15.7323C-0.41111 11.7897 0.942908 6.72972 4.87832 4.45337C5.1893 4.27337 5.49964 4.11956 5.80001 3.99678C5.97937 3.92333 6.06551 3.7181 5.99223 3.53874C5.91894 3.3589 5.71371 3.27244 5.53484 3.34621C5.20473 3.48105 4.86578 3.64915 4.52732 3.84506C0.25714 6.3154 -1.21211 11.8054 1.25212 16.0836Z" fill="white"/>
</svg>
