<svg xmlns="http://www.w3.org/2000/svg" xmlns:xlink="http://www.w3.org/1999/xlink" width="25.499" height="25.501" viewBox="0 0 25.499 25.501">
  <defs>
    <linearGradient id="linear-gradient" x1="0.5" x2="0.5" y2="0.979" gradientUnits="objectBoundingBox">
      <stop offset="0" stop-color="#0fff25"/>
      <stop offset="1" stop-color="#56e4ff"/>
    </linearGradient>
  </defs>
  <path id="Union_74" data-name="Union 74" d="M5949.532,11363.5a2.777,2.777,0,0,1-2.772-2.771v-6.651a.555.555,0,1,1,1.109,0v6.651a1.666,1.666,0,0,0,1.663,1.662h12.2a1.666,1.666,0,0,0,1.663-1.662v-19.958a1.664,1.664,0,0,0-1.663-1.662h-12.2a1.664,1.664,0,0,0-1.663,1.662v6.653a.555.555,0,0,1-1.109,0v-6.653a2.775,2.775,0,0,1,2.772-2.771h12.195a2.775,2.775,0,0,1,2.772,2.771v19.958a2.776,2.776,0,0,1-2.772,2.771Zm4.044-9.034a.553.553,0,0,1,0-.782l2.379-2.381h-16.4a.555.555,0,0,1,0-1.109h16.4l-2.376-2.376a.554.554,0,0,1,.782-.784l3.291,3.288a.556.556,0,0,1,.2.4h0c0,.008,0,.017,0,.024h0a.553.553,0,0,1-.163.393l-3.328,3.325a.555.555,0,0,1-.782,0Z" transform="translate(-5939 -11338)" fill="url(#linear-gradient)"/>
</svg>
