<svg xmlns="http://www.w3.org/2000/svg" xmlns:xlink="http://www.w3.org/1999/xlink" width="26.005" height="20.64" viewBox="0 0 26.005 20.64"><defs><style>.a{stroke:rgba(0,0,0,0);fill-rule:evenodd;fill:url(#a);}</style><linearGradient id="a" x1="0.5" x2="0.5" y2="0.979" gradientUnits="objectBoundingBox"><stop offset="0" stop-color="#0fff25"/><stop offset="1" stop-color="#56e4ff"/></linearGradient></defs><path class="a" d="M.931.5a.427.427,0,1,0,0,.854H4L5.622,14.216A2.133,2.133,0,0,0,6.1,18.432H8.332a1.268,1.268,0,0,0-.074.427,1.293,1.293,0,0,0,2.586,0,1.268,1.268,0,0,0-.074-.427h7.906a1.268,1.268,0,0,0-.074.427,1.293,1.293,0,0,0,2.586,0,1.268,1.268,0,0,0-.074-.427h.5a.427.427,0,1,0,0-.854H6.1a1.281,1.281,0,1,1,0-2.562H21.621a.433.433,0,0,0,.286-.108.427.427,0,0,0,.072-.082.421.421,0,0,0,.057-.121L25.481,3.614a.424.424,0,0,0-.065-.379.432.432,0,0,0-.347-.173H5.241a.434.434,0,0,0-.155.028L4.807.874A.43.43,0,0,0,4.379.5ZM9.552,18.432a.427.427,0,1,0,.431.427A.429.429,0,0,0,9.552,18.432Zm9.914.427a.431.431,0,1,1,.431.427A.429.429,0,0,1,19.465,18.859Zm1.837-4.7L24.485,3.916H5.241l-.051,0,1.293,10.25Z"/></svg>