<svg xmlns="http://www.w3.org/2000/svg" xmlns:xlink="http://www.w3.org/1999/xlink" width="24.999" height="24.999" viewBox="0 0 24.999 24.999"><defs><style>.a{fill:url(#a);}</style><linearGradient id="a" x1="0.5" x2="0.5" y2="0.979" gradientUnits="objectBoundingBox"><stop offset="0" stop-color="#0fff25"/><stop offset="1" stop-color="#56e4ff"/></linearGradient></defs><path class="a" d="M384.157,5031a.5.5,0,0,1-.5-.5v-5.342a.5.5,0,0,1,.5-.5H389.5a.5.5,0,0,1,.5.5v5.342a.5.5,0,0,1-.5.5Zm.432-.933h4.477v-4.477h-4.477Zm-9.76.933a.5.5,0,0,1-.5-.5v-5.342a.5.5,0,0,1,.5-.5h5.342a.5.5,0,0,1,.5.5v5.342a.5.5,0,0,1-.5.5Zm.432-.933h4.477v-4.477H375.26Zm-9.76.933a.5.5,0,0,1-.5-.5v-5.342a.5.5,0,0,1,.5-.5h5.342a.5.5,0,0,1,.5.5v5.342a.5.5,0,0,1-.5.5Zm.432-.933h4.477v-4.477h-4.477Zm18.225-8.394a.5.5,0,0,1-.5-.5v-5.342a.5.5,0,0,1,.5-.5H389.5a.5.5,0,0,1,.5.5v5.342a.5.5,0,0,1-.5.5Zm.432-.934h4.477v-4.478h-4.477Zm-9.76.934a.5.5,0,0,1-.5-.5v-5.342a.5.5,0,0,1,.5-.5h5.342a.5.5,0,0,1,.5.5v5.342a.5.5,0,0,1-.5.5Zm.432-.934h4.477v-4.478H375.26Zm-9.76.934a.5.5,0,0,1-.5-.5v-5.342a.5.5,0,0,1,.5-.5h5.342a.5.5,0,0,1,.5.5v5.342a.5.5,0,0,1-.5.5Zm.432-.934h4.477v-4.478h-4.477Zm18.225-8.394a.5.5,0,0,1-.5-.5V5006.5a.5.5,0,0,1,.5-.5H389.5a.5.5,0,0,1,.5.5v5.342a.5.5,0,0,1-.5.5Zm.432-.934h4.477v-4.478h-4.477Zm-9.76.934a.5.5,0,0,1-.5-.5V5006.5a.5.5,0,0,1,.5-.5h5.342a.5.5,0,0,1,.5.5v5.342a.5.5,0,0,1-.5.5Zm.432-.934h4.477v-4.478H375.26Zm-9.76.934a.5.5,0,0,1-.5-.5V5006.5a.5.5,0,0,1,.5-.5h5.342a.5.5,0,0,1,.5.5v5.342a.5.5,0,0,1-.5.5Zm.432-.934h4.477v-4.478h-4.477Z" transform="translate(-365 -5006)"/></svg>