<svg xmlns="http://www.w3.org/2000/svg" width="24.319" height="24.582" viewBox="0 0 24.319 24.582"><defs><style>.a{fill:#fffffe;}</style></defs><path class="a" d="M8.608,24.457l-1.565-.585a2,2,0,0,1-1.133-1.063,2.034,2.034,0,0,1-.062-1.558l.317-.868a10.147,10.147,0,0,1-.8-.669,9.9,9.9,0,0,1-.725-.752l-.833.387a1.987,1.987,0,0,1-1.538.061A2.008,2.008,0,0,1,1.139,18.35l-.7-1.533a2.059,2.059,0,0,1-.058-1.56,2.02,2.02,0,0,1,1.048-1.147l.831-.385a10.122,10.122,0,0,1-.078-2.093l-.86-.32a1.993,1.993,0,0,1-.67-.415,2.041,2.041,0,0,1-.464-.645,2.09,2.09,0,0,1-.135-.4A2.131,2.131,0,0,1,0,9.428l0-.006V9.385a2.317,2.317,0,0,1,.035-.353,2.082,2.082,0,0,1,.093-.337L.7,7.112V7.106A2.068,2.068,0,0,1,2.624,5.784,1.9,1.9,0,0,1,3.29,5.9l0,0h0l.858.32a10.083,10.083,0,0,1,.66-.8,10.252,10.252,0,0,1,.746-.736l-.383-.839a2.052,2.052,0,0,1-.059-1.559A2.026,2.026,0,0,1,6.164,1.139L7.68.437A1.989,1.989,0,0,1,9.22.375a2.008,2.008,0,0,1,1.134,1.059l.383.841a10.177,10.177,0,0,1,1.037-.095c.125,0,.253-.007.38-.007.213,0,.432.007.651.021l.317-.868A2.038,2.038,0,0,1,14.177.194,2.075,2.075,0,0,1,15.045,0a1.9,1.9,0,0,1,.667.119L17.277.7A2.022,2.022,0,0,1,18.41,1.767a2.05,2.05,0,0,1,.061,1.558l-.318.867a9.991,9.991,0,0,1,.8.669,10.277,10.277,0,0,1,.726.753l.83-.386,0,0a1.981,1.981,0,0,1,1.536-.059A2.014,2.014,0,0,1,23.18,6.222l.7,1.535a2.051,2.051,0,0,1,.061,1.56,2.02,2.02,0,0,1-1.048,1.148l-.831.386a9.943,9.943,0,0,1,.093,1.045,10.175,10.175,0,0,1-.014,1.047l.859.32a2.018,2.018,0,0,1,1.133,1.061,2.042,2.042,0,0,1,.061,1.558l-.579,1.582a2.043,2.043,0,0,1-.41.678,1.995,1.995,0,0,1-1.4.655l-.082,0a2.009,2.009,0,0,1-.7-.125l-.86-.322a10.181,10.181,0,0,1-.662.806,10.029,10.029,0,0,1-.743.733l.383.84a2.042,2.042,0,0,1,.061,1.558,2.021,2.021,0,0,1-1.044,1.146l-1.517.706a1.977,1.977,0,0,1-.843.188,2.014,2.014,0,0,1-1.832-1.183l-.383-.842a10.114,10.114,0,0,1-1.039.094c-.124,0-.251.007-.376.007-.216,0-.436-.007-.654-.022l-.316.868a2.077,2.077,0,0,1-.412.68,2,2,0,0,1-.636.468,2.035,2.035,0,0,1-.769.184l-.081,0A1.981,1.981,0,0,1,8.608,24.457ZM4.941,17.651h0l.257.322a9.022,9.022,0,0,0,.884.954,9.128,9.128,0,0,0,1.013.817l.34.236-.142.389-.456,1.248a.943.943,0,0,0-.061.375.974.974,0,0,0,.09.369.953.953,0,0,0,.22.31.942.942,0,0,0,.319.2l1.565.585a.954.954,0,0,0,.338.062h.034a.959.959,0,0,0,.364-.088.979.979,0,0,0,.5-.547l.455-1.251.143-.392.409.045a8.788,8.788,0,0,0,.962.053c.11,0,.221,0,.331-.006a8.945,8.945,0,0,0,1.292-.144l.4-.075.171.376.55,1.2a.962.962,0,0,0,.877.568.941.941,0,0,0,.4-.087l1.516-.706a.978.978,0,0,0,.472-1.288l-.552-1.211-.171-.377.32-.262a8.957,8.957,0,0,0,1.752-1.92l.233-.345.384.144,1.237.464a.954.954,0,0,0,.338.062h.034a.957.957,0,0,0,.364-.09.979.979,0,0,0,.3-.223.951.951,0,0,0,.2-.323l.578-1.581a.976.976,0,0,0-.028-.743.963.963,0,0,0-.538-.506L21.4,13.8l-.388-.145.045-.413a9.044,9.044,0,0,0-.1-2.615l-.075-.407.372-.174,1.193-.556a.958.958,0,0,0,.5-.545.985.985,0,0,0-.026-.745l-.7-1.531a.962.962,0,0,0-.876-.566.939.939,0,0,0-.4.086l-.006,0-1.2.556-.372.173L19.121,6.6a9.084,9.084,0,0,0-.885-.956,8.926,8.926,0,0,0-1.014-.816l-.34-.236.142-.389.456-1.248a.986.986,0,0,0-.028-.747.955.955,0,0,0-.538-.5l-1.565-.584a.863.863,0,0,0-.3-.054,1.019,1.019,0,0,0-.426.1.965.965,0,0,0-.5.53l-.456,1.25-.142.391-.407-.044a8.9,8.9,0,0,0-.951-.051c-.115,0-.231,0-.346.007a8.984,8.984,0,0,0-1.292.143l-.4.075-.171-.375L9.4,1.883a.958.958,0,0,0-.539-.5.97.97,0,0,0-.338-.061.945.945,0,0,0-.4.087l-1.517.7A.987.987,0,0,0,6.134,3.4l.55,1.207.172.375-.319.262a9.229,9.229,0,0,0-.949.9,9.119,9.119,0,0,0-.806,1.023l-.233.345-.384-.144L2.931,6.907l-.005,0h0a.873.873,0,0,0-.306-.054,1.009,1.009,0,0,0-.421.1.972.972,0,0,0-.5.53v.005l-.575,1.58a.92.92,0,0,0-.046.163,1,1,0,0,0-.016.16l0,.037a.887.887,0,0,0,.023.193,1.042,1.042,0,0,0,.064.192,1,1,0,0,0,.221.307.944.944,0,0,0,.319.2l1.239.462.389.145-.046.415a9,9,0,0,0,.1,2.612l.075.407-.374.175-1.193.554a.96.96,0,0,0-.5.545.984.984,0,0,0,.024.745L2.1,17.9a.959.959,0,0,0,.875.567.946.946,0,0,0,.4-.088l1.2-.557.371-.172Zm3.762.1A6.519,6.519,0,0,1,9.475,6.394a6.324,6.324,0,0,1,6.141.431,6.447,6.447,0,0,1,2.373,2.746,6.514,6.514,0,0,1,.19,4.963,6.415,6.415,0,0,1-3.334,3.648A6.327,6.327,0,0,1,8.7,17.75ZM11.011,6.99a5.279,5.279,0,0,0-1.094.373,5.355,5.355,0,0,0-2.784,3.046,5.435,5.435,0,0,0,2.136,6.442,5.335,5.335,0,0,0,7.918-2.687A5.437,5.437,0,0,0,15.05,7.722a5.313,5.313,0,0,0-4.039-.732Z"/></svg>