<svg xmlns="http://www.w3.org/2000/svg" width="30.593" height="25.429" viewBox="0 0 30.593 25.429">
  <g id="_007-add-user-2" data-name="007-add-user-2" transform="translate(0 0)">
    <g id="Group_1032" data-name="Group 1032" transform="translate(0 0)">
      <path id="Path_5097" data-name="Path 5097" d="M8.971,100.665V99.206H5.184V95.251h-1.4v3.955H0v1.459H3.787v3.955h1.4v-3.955Z" transform="translate(0 -89.247)" fill="#fff"/>
      <path id="Path_5098" data-name="Path 5098" d="M93.75,185.941H83.178a6.591,6.591,0,0,0-6.437,6.722v3.883h23.446v-3.883A6.592,6.592,0,0,0,93.75,185.941Zm5.04,9.146H78.138v-2.424a5.161,5.161,0,0,1,5.04-5.263H93.75a5.161,5.161,0,0,1,5.04,5.263v2.424Z" transform="translate(-69.594 -171.117)" fill="#fff"/>
      <path id="Path_5099" data-name="Path 5099" d="M136.725,47.647a7.073,7.073,0,1,0-6.767-7.067A6.93,6.93,0,0,0,136.725,47.647Zm0-12.675a5.613,5.613,0,1,1-5.37,5.608A5.5,5.5,0,0,1,136.725,34.973Z" transform="translate(-117.855 -33.514)" fill="#fff"/>
    </g>
  </g>
</svg>
