<svg xmlns="http://www.w3.org/2000/svg" width="22" height="18.048" viewBox="0 0 22 18.048"><defs><style>.a{fill:#fff;}</style></defs><g transform="translate(-20 -57)"><path class="a" d="M21.476,1.048H.524A.524.524,0,0,1,.524,0H21.476a.524.524,0,0,1,0,1.048" transform="translate(20 57)"/><path class="a" d="M12.69,1.048H.31C.139,1.048,0,.813,0,.524S.139,0,.31,0H12.69c.171,0,.31.234.31.524s-.139.524-.31.524" transform="translate(25 65)"/><path class="a" d="M21.476,1.048H.524A.524.524,0,0,1,.524,0H21.476a.524.524,0,0,1,0,1.048" transform="translate(20 74)"/></g></svg>